%TF.GenerationSoftware,KiCad,Pcbnew,(6.0.5)*%
%TF.CreationDate,2022-05-12T23:47:52-05:00*%
%TF.ProjectId,RGBFAN,52474246-414e-42e6-9b69-6361645f7063,rev?*%
%TF.SameCoordinates,Original*%
%TF.FileFunction,Soldermask,Top*%
%TF.FilePolarity,Negative*%
%FSLAX46Y46*%
G04 Gerber Fmt 4.6, Leading zero omitted, Abs format (unit mm)*
G04 Created by KiCad (PCBNEW (6.0.5)) date 2022-05-12 23:47:52*
%MOMM*%
%LPD*%
G01*
G04 APERTURE LIST*
G04 Aperture macros list*
%AMRoundRect*
0 Rectangle with rounded corners*
0 $1 Rounding radius*
0 $2 $3 $4 $5 $6 $7 $8 $9 X,Y pos of 4 corners*
0 Add a 4 corners polygon primitive as box body*
4,1,4,$2,$3,$4,$5,$6,$7,$8,$9,$2,$3,0*
0 Add four circle primitives for the rounded corners*
1,1,$1+$1,$2,$3*
1,1,$1+$1,$4,$5*
1,1,$1+$1,$6,$7*
1,1,$1+$1,$8,$9*
0 Add four rect primitives between the rounded corners*
20,1,$1+$1,$2,$3,$4,$5,0*
20,1,$1+$1,$4,$5,$6,$7,0*
20,1,$1+$1,$6,$7,$8,$9,0*
20,1,$1+$1,$8,$9,$2,$3,0*%
G04 Aperture macros list end*
%ADD10RoundRect,0.250000X-0.400000X-0.625000X0.400000X-0.625000X0.400000X0.625000X-0.400000X0.625000X0*%
%ADD11R,1.600000X1.600000*%
%ADD12O,1.600000X1.600000*%
%ADD13R,2.030000X1.730000*%
%ADD14O,2.030000X1.730000*%
%ADD15R,0.850000X0.850000*%
%ADD16O,0.850000X0.850000*%
%ADD17C,1.200000*%
%ADD18C,0.900000*%
%ADD19C,1.600000*%
%ADD20R,1.900000X0.650000*%
G04 APERTURE END LIST*
D10*
%TO.C,470 ohm 1206 resistor*%
X144425000Y-75692000D03*
X141325000Y-75692000D03*
%TD*%
D11*
%TO.C,NANO USB PORT GOES ON THIS SIDE*%
X147320000Y-86360000D03*
D12*
X144780000Y-86360000D03*
X142240000Y-86360000D03*
X139700000Y-86360000D03*
X137160000Y-86360000D03*
X134620000Y-86360000D03*
X132080000Y-86360000D03*
X129540000Y-86360000D03*
X127000000Y-86360000D03*
X124460000Y-86360000D03*
X121920000Y-86360000D03*
X119380000Y-86360000D03*
X116840000Y-86360000D03*
X114300000Y-86360000D03*
X111760000Y-86360000D03*
X111760000Y-101600000D03*
X114300000Y-101600000D03*
X116840000Y-101600000D03*
X119380000Y-101600000D03*
X121920000Y-101600000D03*
X124460000Y-101600000D03*
X127000000Y-101600000D03*
X129540000Y-101600000D03*
X132080000Y-101600000D03*
X134620000Y-101600000D03*
X137160000Y-101600000D03*
X139700000Y-101600000D03*
X142240000Y-101600000D03*
X144780000Y-101600000D03*
X147320000Y-101600000D03*
%TD*%
D10*
%TO.C,470 ohm 1206 resistor*%
X149961000Y-113919000D03*
X153061000Y-113919000D03*
%TD*%
%TO.C,470 ohm 1206 resistor*%
X150088000Y-108585000D03*
X153188000Y-108585000D03*
%TD*%
%TO.C,470 ohm 1206 resistor*%
X127990000Y-78994000D03*
X131090000Y-78994000D03*
%TD*%
D13*
%TO.C,Fan 5*%
X163322000Y-113538000D03*
D14*
X163322000Y-116078000D03*
X163322000Y-118618000D03*
%TD*%
D15*
%TO.C,RGB_1*%
X113030000Y-66040000D03*
D16*
X112030000Y-66040000D03*
X111030000Y-66040000D03*
X110030000Y-66040000D03*
%TD*%
D15*
%TO.C,RGB_4*%
X139700000Y-66040000D03*
D16*
X138700000Y-66040000D03*
X137700000Y-66040000D03*
X136700000Y-66040000D03*
%TD*%
D15*
%TO.C,RGB_5*%
X148590000Y-66040000D03*
D16*
X147590000Y-66040000D03*
X146590000Y-66040000D03*
X145590000Y-66040000D03*
%TD*%
D13*
%TO.C,Fan 2*%
X163830000Y-83058000D03*
D14*
X163830000Y-85598000D03*
X163830000Y-88138000D03*
%TD*%
D15*
%TO.C,RGB_2*%
X121896000Y-66040000D03*
D16*
X120896000Y-66040000D03*
X119896000Y-66040000D03*
X118896000Y-66040000D03*
%TD*%
D15*
%TO.C,RGB_3*%
X130786000Y-66040000D03*
D16*
X129786000Y-66040000D03*
X128786000Y-66040000D03*
X127786000Y-66040000D03*
%TD*%
D17*
%TO.C,SATA CONNECTOR*%
X79395080Y-113904000D03*
D18*
X79395080Y-77104000D03*
D19*
X77595080Y-115504000D03*
X77595080Y-75504000D03*
D20*
X79735080Y-93599000D03*
X79735080Y-94869000D03*
X79735080Y-96139000D03*
X79735080Y-97409000D03*
X79735080Y-98679000D03*
X79735080Y-99949000D03*
X79735080Y-101219000D03*
X79735080Y-102489000D03*
X79735080Y-103759000D03*
X79735080Y-105029000D03*
X79735080Y-106299000D03*
X79735080Y-107569000D03*
X79735080Y-108839000D03*
X79735080Y-110109000D03*
X79735080Y-111379000D03*
X79735080Y-79634000D03*
X79735080Y-80904000D03*
X79735080Y-82174000D03*
X79735080Y-83444000D03*
X79735080Y-84714000D03*
X79735080Y-85984000D03*
X79735080Y-87254000D03*
%TD*%
D13*
%TO.C,Fan 3*%
X163576000Y-93218000D03*
D14*
X163576000Y-95758000D03*
X163576000Y-98298000D03*
%TD*%
D13*
%TO.C,Fan 1*%
X163697000Y-72888000D03*
D14*
X163697000Y-75428000D03*
X163697000Y-77968000D03*
%TD*%
D13*
%TO.C,Fan 4*%
X163443000Y-103368000D03*
D14*
X163443000Y-105908000D03*
X163443000Y-108448000D03*
%TD*%
M02*
