%TF.GenerationSoftware,KiCad,Pcbnew,(6.0.5)*%
%TF.CreationDate,2022-05-12T23:47:52-05:00*%
%TF.ProjectId,RGBFAN,52474246-414e-42e6-9b69-6361645f7063,rev?*%
%TF.SameCoordinates,Original*%
%TF.FileFunction,Copper,L1,Top*%
%TF.FilePolarity,Positive*%
%FSLAX46Y46*%
G04 Gerber Fmt 4.6, Leading zero omitted, Abs format (unit mm)*
G04 Created by KiCad (PCBNEW (6.0.5)) date 2022-05-12 23:47:52*
%MOMM*%
%LPD*%
G01*
G04 APERTURE LIST*
G04 Aperture macros list*
%AMRoundRect*
0 Rectangle with rounded corners*
0 $1 Rounding radius*
0 $2 $3 $4 $5 $6 $7 $8 $9 X,Y pos of 4 corners*
0 Add a 4 corners polygon primitive as box body*
4,1,4,$2,$3,$4,$5,$6,$7,$8,$9,$2,$3,0*
0 Add four circle primitives for the rounded corners*
1,1,$1+$1,$2,$3*
1,1,$1+$1,$4,$5*
1,1,$1+$1,$6,$7*
1,1,$1+$1,$8,$9*
0 Add four rect primitives between the rounded corners*
20,1,$1+$1,$2,$3,$4,$5,0*
20,1,$1+$1,$4,$5,$6,$7,0*
20,1,$1+$1,$6,$7,$8,$9,0*
20,1,$1+$1,$8,$9,$2,$3,0*%
G04 Aperture macros list end*
%TA.AperFunction,SMDPad,CuDef*%
%ADD10RoundRect,0.250000X-0.400000X-0.625000X0.400000X-0.625000X0.400000X0.625000X-0.400000X0.625000X0*%
%TD*%
%TA.AperFunction,ComponentPad*%
%ADD11R,1.600000X1.600000*%
%TD*%
%TA.AperFunction,ComponentPad*%
%ADD12O,1.600000X1.600000*%
%TD*%
%TA.AperFunction,ComponentPad*%
%ADD13R,2.030000X1.730000*%
%TD*%
%TA.AperFunction,ComponentPad*%
%ADD14O,2.030000X1.730000*%
%TD*%
%TA.AperFunction,ComponentPad*%
%ADD15R,0.850000X0.850000*%
%TD*%
%TA.AperFunction,ComponentPad*%
%ADD16O,0.850000X0.850000*%
%TD*%
%TA.AperFunction,ComponentPad*%
%ADD17C,1.600000*%
%TD*%
%TA.AperFunction,SMDPad,CuDef*%
%ADD18R,1.900000X0.650000*%
%TD*%
%TA.AperFunction,ViaPad*%
%ADD19C,0.800000*%
%TD*%
%TA.AperFunction,Conductor*%
%ADD20C,0.200000*%
%TD*%
%TA.AperFunction,Conductor*%
%ADD21C,0.250000*%
%TD*%
G04 APERTURE END LIST*
D10*
%TO.P,470 ohm 1206 resistor,2*%
%TO.N,N/C*%
X144425000Y-75692000D03*
%TO.P,470 ohm 1206 resistor,1*%
X141325000Y-75692000D03*
%TD*%
D11*
%TO.P,NANO USB PORT GOES ON THIS SIDE,1*%
%TO.N,N/C*%
X147320000Y-86360000D03*
D12*
%TO.P,NANO USB PORT GOES ON THIS SIDE,2*%
X144780000Y-86360000D03*
%TO.P,NANO USB PORT GOES ON THIS SIDE,3*%
X142240000Y-86360000D03*
%TO.P,NANO USB PORT GOES ON THIS SIDE,4*%
X139700000Y-86360000D03*
%TO.P,NANO USB PORT GOES ON THIS SIDE,5*%
X137160000Y-86360000D03*
%TO.P,NANO USB PORT GOES ON THIS SIDE,6*%
X134620000Y-86360000D03*
%TO.P,NANO USB PORT GOES ON THIS SIDE,7*%
X132080000Y-86360000D03*
%TO.P,NANO USB PORT GOES ON THIS SIDE,8*%
X129540000Y-86360000D03*
%TO.P,NANO USB PORT GOES ON THIS SIDE,9*%
X127000000Y-86360000D03*
%TO.P,NANO USB PORT GOES ON THIS SIDE,10*%
X124460000Y-86360000D03*
%TO.P,NANO USB PORT GOES ON THIS SIDE,11*%
X121920000Y-86360000D03*
%TO.P,NANO USB PORT GOES ON THIS SIDE,12*%
X119380000Y-86360000D03*
%TO.P,NANO USB PORT GOES ON THIS SIDE,13*%
X116840000Y-86360000D03*
%TO.P,NANO USB PORT GOES ON THIS SIDE,14*%
X114300000Y-86360000D03*
%TO.P,NANO USB PORT GOES ON THIS SIDE,15*%
X111760000Y-86360000D03*
%TO.P,NANO USB PORT GOES ON THIS SIDE,16*%
X111760000Y-101600000D03*
%TO.P,NANO USB PORT GOES ON THIS SIDE,17*%
X114300000Y-101600000D03*
%TO.P,NANO USB PORT GOES ON THIS SIDE,18*%
X116840000Y-101600000D03*
%TO.P,NANO USB PORT GOES ON THIS SIDE,19*%
X119380000Y-101600000D03*
%TO.P,NANO USB PORT GOES ON THIS SIDE,20*%
X121920000Y-101600000D03*
%TO.P,NANO USB PORT GOES ON THIS SIDE,21*%
X124460000Y-101600000D03*
%TO.P,NANO USB PORT GOES ON THIS SIDE,22*%
X127000000Y-101600000D03*
%TO.P,NANO USB PORT GOES ON THIS SIDE,23*%
X129540000Y-101600000D03*
%TO.P,NANO USB PORT GOES ON THIS SIDE,24*%
X132080000Y-101600000D03*
%TO.P,NANO USB PORT GOES ON THIS SIDE,25*%
X134620000Y-101600000D03*
%TO.P,NANO USB PORT GOES ON THIS SIDE,26*%
X137160000Y-101600000D03*
%TO.P,NANO USB PORT GOES ON THIS SIDE,27*%
X139700000Y-101600000D03*
%TO.P,NANO USB PORT GOES ON THIS SIDE,28*%
X142240000Y-101600000D03*
%TO.P,NANO USB PORT GOES ON THIS SIDE,29*%
X144780000Y-101600000D03*
%TO.P,NANO USB PORT GOES ON THIS SIDE,30*%
X147320000Y-101600000D03*
%TD*%
D10*
%TO.P,470 ohm 1206 resistor,1*%
%TO.N,N/C*%
X149961000Y-113919000D03*
%TO.P,470 ohm 1206 resistor,2*%
X153061000Y-113919000D03*
%TD*%
%TO.P,470 ohm 1206 resistor,1*%
%TO.N,N/C*%
X150088000Y-108585000D03*
%TO.P,470 ohm 1206 resistor,2*%
X153188000Y-108585000D03*
%TD*%
%TO.P,470 ohm 1206 resistor,1*%
%TO.N,N/C*%
X127990000Y-78994000D03*
%TO.P,470 ohm 1206 resistor,2*%
X131090000Y-78994000D03*
%TD*%
D13*
%TO.P,Fan 5,1*%
%TO.N,N/C*%
X163322000Y-113538000D03*
D14*
%TO.P,Fan 5,2*%
X163322000Y-116078000D03*
%TO.P,Fan 5,3*%
X163322000Y-118618000D03*
%TD*%
D15*
%TO.P,RGB_1,1*%
%TO.N,N/C*%
X113030000Y-66040000D03*
D16*
%TO.P,RGB_1,2*%
X112030000Y-66040000D03*
%TO.P,RGB_1,3*%
X111030000Y-66040000D03*
%TO.P,RGB_1,4*%
X110030000Y-66040000D03*
%TD*%
D15*
%TO.P,RGB_4,1*%
%TO.N,N/C*%
X139700000Y-66040000D03*
D16*
%TO.P,RGB_4,2*%
X138700000Y-66040000D03*
%TO.P,RGB_4,3*%
X137700000Y-66040000D03*
%TO.P,RGB_4,4*%
X136700000Y-66040000D03*
%TD*%
D15*
%TO.P,RGB_5,1*%
%TO.N,N/C*%
X148590000Y-66040000D03*
D16*
%TO.P,RGB_5,2*%
X147590000Y-66040000D03*
%TO.P,RGB_5,3*%
X146590000Y-66040000D03*
%TO.P,RGB_5,4*%
X145590000Y-66040000D03*
%TD*%
D13*
%TO.P,Fan 2,1*%
%TO.N,N/C*%
X163830000Y-83058000D03*
D14*
%TO.P,Fan 2,2*%
X163830000Y-85598000D03*
%TO.P,Fan 2,3*%
X163830000Y-88138000D03*
%TD*%
D15*
%TO.P,RGB_2,1*%
%TO.N,N/C*%
X121896000Y-66040000D03*
D16*
%TO.P,RGB_2,2*%
X120896000Y-66040000D03*
%TO.P,RGB_2,3*%
X119896000Y-66040000D03*
%TO.P,RGB_2,4*%
X118896000Y-66040000D03*
%TD*%
D15*
%TO.P,RGB_3,1*%
%TO.N,N/C*%
X130786000Y-66040000D03*
D16*
%TO.P,RGB_3,2*%
X129786000Y-66040000D03*
%TO.P,RGB_3,3*%
X128786000Y-66040000D03*
%TO.P,RGB_3,4*%
X127786000Y-66040000D03*
%TD*%
D17*
%TO.P,SATA CONNECTOR,MP*%
%TO.N,N/C*%
X77595080Y-115504000D03*
X77595080Y-75504000D03*
D18*
%TO.P,SATA CONNECTOR,P1*%
X79735080Y-93599000D03*
%TO.P,SATA CONNECTOR,P2*%
X79735080Y-94869000D03*
%TO.P,SATA CONNECTOR,P3*%
X79735080Y-96139000D03*
%TO.P,SATA CONNECTOR,P4*%
X79735080Y-97409000D03*
%TO.P,SATA CONNECTOR,P5*%
X79735080Y-98679000D03*
%TO.P,SATA CONNECTOR,P6*%
X79735080Y-99949000D03*
%TO.P,SATA CONNECTOR,P7*%
X79735080Y-101219000D03*
%TO.P,SATA CONNECTOR,P8*%
X79735080Y-102489000D03*
%TO.P,SATA CONNECTOR,P9*%
X79735080Y-103759000D03*
%TO.P,SATA CONNECTOR,P10*%
X79735080Y-105029000D03*
%TO.P,SATA CONNECTOR,P11*%
X79735080Y-106299000D03*
%TO.P,SATA CONNECTOR,P12*%
X79735080Y-107569000D03*
%TO.P,SATA CONNECTOR,P13*%
X79735080Y-108839000D03*
%TO.P,SATA CONNECTOR,P14*%
X79735080Y-110109000D03*
%TO.P,SATA CONNECTOR,P15*%
X79735080Y-111379000D03*
%TO.P,SATA CONNECTOR,S1*%
X79735080Y-79634000D03*
%TO.P,SATA CONNECTOR,S2*%
X79735080Y-80904000D03*
%TO.P,SATA CONNECTOR,S3*%
X79735080Y-82174000D03*
%TO.P,SATA CONNECTOR,S4*%
X79735080Y-83444000D03*
%TO.P,SATA CONNECTOR,S5*%
X79735080Y-84714000D03*
%TO.P,SATA CONNECTOR,S6*%
X79735080Y-85984000D03*
%TO.P,SATA CONNECTOR,S7*%
X79735080Y-87254000D03*
%TD*%
D13*
%TO.P,Fan 3,1*%
%TO.N,N/C*%
X163576000Y-93218000D03*
D14*
%TO.P,Fan 3,2*%
X163576000Y-95758000D03*
%TO.P,Fan 3,3*%
X163576000Y-98298000D03*
%TD*%
D13*
%TO.P,Fan 1,1*%
%TO.N,N/C*%
X163697000Y-72888000D03*
D14*
%TO.P,Fan 1,2*%
X163697000Y-75428000D03*
%TO.P,Fan 1,3*%
X163697000Y-77968000D03*
%TD*%
D13*
%TO.P,Fan 4,1*%
%TO.N,N/C*%
X163443000Y-103368000D03*
D14*
%TO.P,Fan 4,2*%
X163443000Y-105908000D03*
%TO.P,Fan 4,3*%
X163443000Y-108448000D03*
%TD*%
D19*
%TO.N,*%
X139192000Y-75692000D03*
X146177000Y-75692000D03*
X147574000Y-113919000D03*
X154940000Y-113919000D03*
X154940000Y-108585000D03*
X148336000Y-108585000D03*
X87630000Y-108839000D03*
%TD*%
D20*
%TO.N,*%
X139192000Y-75692000D02*
X141325000Y-75692000D01*
X146177000Y-75692000D02*
X144425000Y-75692000D01*
X141224000Y-75793000D02*
X141325000Y-75692000D01*
X144526000Y-75793000D02*
X144425000Y-75692000D01*
X147574000Y-113919000D02*
X149961000Y-113919000D01*
X148336000Y-108585000D02*
X150088000Y-108585000D01*
X154940000Y-108585000D02*
X153188000Y-108585000D01*
X154940000Y-113919000D02*
X153061000Y-113919000D01*
D21*
X111030000Y-66040000D02*
X111030000Y-64040000D01*
D20*
X157724000Y-92700000D02*
X158242000Y-93218000D01*
D21*
X131826000Y-84074000D02*
X131826000Y-79730000D01*
D20*
X157480000Y-93472000D02*
X157988000Y-92964000D01*
X163322000Y-113538000D02*
X159258000Y-113538000D01*
D21*
X152400000Y-68072000D02*
X150114000Y-70358000D01*
X136700000Y-67866000D02*
X136906000Y-68072000D01*
X150114000Y-70358000D02*
X129286000Y-70358000D01*
X137160000Y-83947000D02*
X137160000Y-86360000D01*
D20*
X159258000Y-113538000D02*
X157480000Y-111760000D01*
D21*
X127786000Y-68048000D02*
X127762000Y-68072000D01*
X100734000Y-110086000D02*
X100734000Y-75034000D01*
X101900000Y-111252000D02*
X100734000Y-110086000D01*
X126238000Y-73406000D02*
X126238000Y-78994000D01*
X107696000Y-68072000D02*
X145034000Y-68072000D01*
X150114000Y-75946000D02*
X150114000Y-79756000D01*
X157724000Y-72888000D02*
X153172000Y-72888000D01*
X124460000Y-86360000D02*
X124206000Y-86106000D01*
D20*
X157480000Y-102108000D02*
X157861000Y-101727000D01*
D21*
X118896000Y-67842000D02*
X119102000Y-68048000D01*
X145590000Y-67516000D02*
X145590000Y-66040000D01*
X151892000Y-64008000D02*
X152400000Y-64516000D01*
D20*
X157480000Y-101346000D02*
X157480000Y-93472000D01*
D21*
X145034000Y-68072000D02*
X145590000Y-67516000D01*
X119896000Y-64524000D02*
X119896000Y-66040000D01*
X124206000Y-84074000D02*
X131826000Y-84074000D01*
X163697000Y-72888000D02*
X157724000Y-72888000D01*
X137668000Y-111252000D02*
X101900000Y-111252000D01*
X153172000Y-72888000D02*
X150114000Y-75946000D01*
X140335000Y-80772000D02*
X137160000Y-83947000D01*
X137700000Y-66040000D02*
X137700000Y-64040000D01*
X110998000Y-64008000D02*
X151892000Y-64008000D01*
D20*
X157480000Y-101346000D02*
X159502000Y-103368000D01*
D21*
X111030000Y-64040000D02*
X110998000Y-64008000D01*
D20*
X157724000Y-72888000D02*
X157724000Y-92700000D01*
D21*
X126238000Y-78994000D02*
X127990000Y-78994000D01*
X149098000Y-80772000D02*
X140335000Y-80772000D01*
X79735080Y-108839000D02*
X100711000Y-108839000D01*
X128786000Y-64270000D02*
X128524000Y-64008000D01*
X124206000Y-86106000D02*
X124206000Y-84074000D01*
X144780000Y-68072000D02*
X144756000Y-68048000D01*
X152400000Y-64516000D02*
X152400000Y-68072000D01*
X136700000Y-66040000D02*
X136700000Y-67866000D01*
X100734000Y-75034000D02*
X107696000Y-68072000D01*
D20*
X163443000Y-103368000D02*
X159502000Y-103368000D01*
D21*
X146590000Y-66040000D02*
X146590000Y-64294000D01*
X150114000Y-79756000D02*
X149098000Y-80772000D01*
D20*
X158242000Y-93218000D02*
X163576000Y-93218000D01*
X157480000Y-111760000D02*
X157480000Y-102108000D01*
D21*
X128786000Y-66040000D02*
X128786000Y-64270000D01*
X118896000Y-68048000D02*
X144756000Y-68048000D01*
X147320000Y-101600000D02*
X137668000Y-111252000D01*
X118896000Y-66040000D02*
X118896000Y-67842000D01*
X146590000Y-64294000D02*
X146304000Y-64008000D01*
D20*
X163830000Y-83058000D02*
X157734000Y-83058000D01*
D21*
X110030000Y-66040000D02*
X110030000Y-67866000D01*
X131826000Y-79730000D02*
X131090000Y-78994000D01*
X129286000Y-70358000D02*
X126238000Y-73406000D01*
X119380000Y-64008000D02*
X119896000Y-64524000D01*
X127786000Y-67842000D02*
X127992000Y-68048000D01*
X127786000Y-66040000D02*
X127786000Y-67842000D01*
%TD*%
M02*
