%TF.GenerationSoftware,KiCad,Pcbnew,(6.0.5)*%
%TF.CreationDate,2022-05-12T23:47:52-05:00*%
%TF.ProjectId,RGBFAN,52474246-414e-42e6-9b69-6361645f7063,rev?*%
%TF.SameCoordinates,Original*%
%TF.FileFunction,Legend,Top*%
%TF.FilePolarity,Positive*%
%FSLAX46Y46*%
G04 Gerber Fmt 4.6, Leading zero omitted, Abs format (unit mm)*
G04 Created by KiCad (PCBNEW (6.0.5)) date 2022-05-12 23:47:52*
%MOMM*%
%LPD*%
G01*
G04 APERTURE LIST*
%ADD10C,0.150000*%
%ADD11C,0.120000*%
G04 APERTURE END LIST*
D10*
X134548571Y-65659047D02*
X134548571Y-66420952D01*
X134167619Y-66040000D02*
X134929523Y-66040000D01*
X143438571Y-65659047D02*
X143438571Y-66420952D01*
X143057619Y-66040000D02*
X143819523Y-66040000D01*
X124816952Y-65968571D02*
X124055047Y-65968571D01*
X116744571Y-65659047D02*
X116744571Y-66420952D01*
X116363619Y-66040000D02*
X117125523Y-66040000D01*
X133706952Y-65968571D02*
X132945047Y-65968571D01*
X115950952Y-65968571D02*
X115189047Y-65968571D01*
X125634571Y-65659047D02*
X125634571Y-66420952D01*
X125253619Y-66040000D02*
X126015523Y-66040000D01*
X151510952Y-65968571D02*
X150749047Y-65968571D01*
X142620952Y-65968571D02*
X141859047Y-65968571D01*
X107878571Y-65659047D02*
X107878571Y-66420952D01*
X107497619Y-66040000D02*
X108259523Y-66040000D01*
%TO.C,470 ohm 1206 resistor*%
X134660714Y-77763714D02*
X134660714Y-78430380D01*
X134422619Y-77382761D02*
X134184523Y-78097047D01*
X134803571Y-78097047D01*
X135089285Y-77430380D02*
X135755952Y-77430380D01*
X135327380Y-78430380D01*
X136327380Y-77430380D02*
X136422619Y-77430380D01*
X136517857Y-77478000D01*
X136565476Y-77525619D01*
X136613095Y-77620857D01*
X136660714Y-77811333D01*
X136660714Y-78049428D01*
X136613095Y-78239904D01*
X136565476Y-78335142D01*
X136517857Y-78382761D01*
X136422619Y-78430380D01*
X136327380Y-78430380D01*
X136232142Y-78382761D01*
X136184523Y-78335142D01*
X136136904Y-78239904D01*
X136089285Y-78049428D01*
X136089285Y-77811333D01*
X136136904Y-77620857D01*
X136184523Y-77525619D01*
X136232142Y-77478000D01*
X136327380Y-77430380D01*
X137994047Y-78430380D02*
X137898809Y-78382761D01*
X137851190Y-78335142D01*
X137803571Y-78239904D01*
X137803571Y-77954190D01*
X137851190Y-77858952D01*
X137898809Y-77811333D01*
X137994047Y-77763714D01*
X138136904Y-77763714D01*
X138232142Y-77811333D01*
X138279761Y-77858952D01*
X138327380Y-77954190D01*
X138327380Y-78239904D01*
X138279761Y-78335142D01*
X138232142Y-78382761D01*
X138136904Y-78430380D01*
X137994047Y-78430380D01*
X138755952Y-78430380D02*
X138755952Y-77430380D01*
X139184523Y-78430380D02*
X139184523Y-77906571D01*
X139136904Y-77811333D01*
X139041666Y-77763714D01*
X138898809Y-77763714D01*
X138803571Y-77811333D01*
X138755952Y-77858952D01*
X139660714Y-78430380D02*
X139660714Y-77763714D01*
X139660714Y-77858952D02*
X139708333Y-77811333D01*
X139803571Y-77763714D01*
X139946428Y-77763714D01*
X140041666Y-77811333D01*
X140089285Y-77906571D01*
X140089285Y-78430380D01*
X140089285Y-77906571D02*
X140136904Y-77811333D01*
X140232142Y-77763714D01*
X140375000Y-77763714D01*
X140470238Y-77811333D01*
X140517857Y-77906571D01*
X140517857Y-78430380D01*
X142279761Y-78430380D02*
X141708333Y-78430380D01*
X141994047Y-78430380D02*
X141994047Y-77430380D01*
X141898809Y-77573238D01*
X141803571Y-77668476D01*
X141708333Y-77716095D01*
X142660714Y-77525619D02*
X142708333Y-77478000D01*
X142803571Y-77430380D01*
X143041666Y-77430380D01*
X143136904Y-77478000D01*
X143184523Y-77525619D01*
X143232142Y-77620857D01*
X143232142Y-77716095D01*
X143184523Y-77858952D01*
X142613095Y-78430380D01*
X143232142Y-78430380D01*
X143851190Y-77430380D02*
X143946428Y-77430380D01*
X144041666Y-77478000D01*
X144089285Y-77525619D01*
X144136904Y-77620857D01*
X144184523Y-77811333D01*
X144184523Y-78049428D01*
X144136904Y-78239904D01*
X144089285Y-78335142D01*
X144041666Y-78382761D01*
X143946428Y-78430380D01*
X143851190Y-78430380D01*
X143755952Y-78382761D01*
X143708333Y-78335142D01*
X143660714Y-78239904D01*
X143613095Y-78049428D01*
X143613095Y-77811333D01*
X143660714Y-77620857D01*
X143708333Y-77525619D01*
X143755952Y-77478000D01*
X143851190Y-77430380D01*
X145041666Y-77430380D02*
X144851190Y-77430380D01*
X144755952Y-77478000D01*
X144708333Y-77525619D01*
X144613095Y-77668476D01*
X144565476Y-77858952D01*
X144565476Y-78239904D01*
X144613095Y-78335142D01*
X144660714Y-78382761D01*
X144755952Y-78430380D01*
X144946428Y-78430380D01*
X145041666Y-78382761D01*
X145089285Y-78335142D01*
X145136904Y-78239904D01*
X145136904Y-78001809D01*
X145089285Y-77906571D01*
X145041666Y-77858952D01*
X144946428Y-77811333D01*
X144755952Y-77811333D01*
X144660714Y-77858952D01*
X144613095Y-77906571D01*
X144565476Y-78001809D01*
X146327380Y-78430380D02*
X146327380Y-77763714D01*
X146327380Y-77954190D02*
X146375000Y-77858952D01*
X146422619Y-77811333D01*
X146517857Y-77763714D01*
X146613095Y-77763714D01*
X147327380Y-78382761D02*
X147232142Y-78430380D01*
X147041666Y-78430380D01*
X146946428Y-78382761D01*
X146898809Y-78287523D01*
X146898809Y-77906571D01*
X146946428Y-77811333D01*
X147041666Y-77763714D01*
X147232142Y-77763714D01*
X147327380Y-77811333D01*
X147375000Y-77906571D01*
X147375000Y-78001809D01*
X146898809Y-78097047D01*
X147755952Y-78382761D02*
X147851190Y-78430380D01*
X148041666Y-78430380D01*
X148136904Y-78382761D01*
X148184523Y-78287523D01*
X148184523Y-78239904D01*
X148136904Y-78144666D01*
X148041666Y-78097047D01*
X147898809Y-78097047D01*
X147803571Y-78049428D01*
X147755952Y-77954190D01*
X147755952Y-77906571D01*
X147803571Y-77811333D01*
X147898809Y-77763714D01*
X148041666Y-77763714D01*
X148136904Y-77811333D01*
X148613095Y-78430380D02*
X148613095Y-77763714D01*
X148613095Y-77430380D02*
X148565476Y-77478000D01*
X148613095Y-77525619D01*
X148660714Y-77478000D01*
X148613095Y-77430380D01*
X148613095Y-77525619D01*
X149041666Y-78382761D02*
X149136904Y-78430380D01*
X149327380Y-78430380D01*
X149422619Y-78382761D01*
X149470238Y-78287523D01*
X149470238Y-78239904D01*
X149422619Y-78144666D01*
X149327380Y-78097047D01*
X149184523Y-78097047D01*
X149089285Y-78049428D01*
X149041666Y-77954190D01*
X149041666Y-77906571D01*
X149089285Y-77811333D01*
X149184523Y-77763714D01*
X149327380Y-77763714D01*
X149422619Y-77811333D01*
X149755952Y-77763714D02*
X150136904Y-77763714D01*
X149898809Y-77430380D02*
X149898809Y-78287523D01*
X149946428Y-78382761D01*
X150041666Y-78430380D01*
X150136904Y-78430380D01*
X150613095Y-78430380D02*
X150517857Y-78382761D01*
X150470238Y-78335142D01*
X150422619Y-78239904D01*
X150422619Y-77954190D01*
X150470238Y-77858952D01*
X150517857Y-77811333D01*
X150613095Y-77763714D01*
X150755952Y-77763714D01*
X150851190Y-77811333D01*
X150898809Y-77858952D01*
X150946428Y-77954190D01*
X150946428Y-78239904D01*
X150898809Y-78335142D01*
X150851190Y-78382761D01*
X150755952Y-78430380D01*
X150613095Y-78430380D01*
X151375000Y-78430380D02*
X151375000Y-77763714D01*
X151375000Y-77954190D02*
X151422619Y-77858952D01*
X151470238Y-77811333D01*
X151565476Y-77763714D01*
X151660714Y-77763714D01*
%TO.C,NANO USB PORT GOES ON THIS SIDE*%
X102052380Y-107718095D02*
X101052380Y-107718095D01*
X102052380Y-107146666D01*
X101052380Y-107146666D01*
X101766666Y-106718095D02*
X101766666Y-106241904D01*
X102052380Y-106813333D02*
X101052380Y-106480000D01*
X102052380Y-106146666D01*
X102052380Y-105813333D02*
X101052380Y-105813333D01*
X102052380Y-105241904D01*
X101052380Y-105241904D01*
X101052380Y-104575238D02*
X101052380Y-104384761D01*
X101100000Y-104289523D01*
X101195238Y-104194285D01*
X101385714Y-104146666D01*
X101719047Y-104146666D01*
X101909523Y-104194285D01*
X102004761Y-104289523D01*
X102052380Y-104384761D01*
X102052380Y-104575238D01*
X102004761Y-104670476D01*
X101909523Y-104765714D01*
X101719047Y-104813333D01*
X101385714Y-104813333D01*
X101195238Y-104765714D01*
X101100000Y-104670476D01*
X101052380Y-104575238D01*
X101052380Y-102956190D02*
X101861904Y-102956190D01*
X101957142Y-102908571D01*
X102004761Y-102860952D01*
X102052380Y-102765714D01*
X102052380Y-102575238D01*
X102004761Y-102480000D01*
X101957142Y-102432380D01*
X101861904Y-102384761D01*
X101052380Y-102384761D01*
X102004761Y-101956190D02*
X102052380Y-101813333D01*
X102052380Y-101575238D01*
X102004761Y-101480000D01*
X101957142Y-101432380D01*
X101861904Y-101384761D01*
X101766666Y-101384761D01*
X101671428Y-101432380D01*
X101623809Y-101480000D01*
X101576190Y-101575238D01*
X101528571Y-101765714D01*
X101480952Y-101860952D01*
X101433333Y-101908571D01*
X101338095Y-101956190D01*
X101242857Y-101956190D01*
X101147619Y-101908571D01*
X101100000Y-101860952D01*
X101052380Y-101765714D01*
X101052380Y-101527619D01*
X101100000Y-101384761D01*
X101528571Y-100622857D02*
X101576190Y-100480000D01*
X101623809Y-100432380D01*
X101719047Y-100384761D01*
X101861904Y-100384761D01*
X101957142Y-100432380D01*
X102004761Y-100480000D01*
X102052380Y-100575238D01*
X102052380Y-100956190D01*
X101052380Y-100956190D01*
X101052380Y-100622857D01*
X101100000Y-100527619D01*
X101147619Y-100480000D01*
X101242857Y-100432380D01*
X101338095Y-100432380D01*
X101433333Y-100480000D01*
X101480952Y-100527619D01*
X101528571Y-100622857D01*
X101528571Y-100956190D01*
X102052380Y-99194285D02*
X101052380Y-99194285D01*
X101052380Y-98813333D01*
X101100000Y-98718095D01*
X101147619Y-98670476D01*
X101242857Y-98622857D01*
X101385714Y-98622857D01*
X101480952Y-98670476D01*
X101528571Y-98718095D01*
X101576190Y-98813333D01*
X101576190Y-99194285D01*
X101052380Y-98003809D02*
X101052380Y-97813333D01*
X101100000Y-97718095D01*
X101195238Y-97622857D01*
X101385714Y-97575238D01*
X101719047Y-97575238D01*
X101909523Y-97622857D01*
X102004761Y-97718095D01*
X102052380Y-97813333D01*
X102052380Y-98003809D01*
X102004761Y-98099047D01*
X101909523Y-98194285D01*
X101719047Y-98241904D01*
X101385714Y-98241904D01*
X101195238Y-98194285D01*
X101100000Y-98099047D01*
X101052380Y-98003809D01*
X102052380Y-96575238D02*
X101576190Y-96908571D01*
X102052380Y-97146666D02*
X101052380Y-97146666D01*
X101052380Y-96765714D01*
X101100000Y-96670476D01*
X101147619Y-96622857D01*
X101242857Y-96575238D01*
X101385714Y-96575238D01*
X101480952Y-96622857D01*
X101528571Y-96670476D01*
X101576190Y-96765714D01*
X101576190Y-97146666D01*
X101052380Y-96289523D02*
X101052380Y-95718095D01*
X102052380Y-96003809D02*
X101052380Y-96003809D01*
X101100000Y-94099047D02*
X101052380Y-94194285D01*
X101052380Y-94337142D01*
X101100000Y-94480000D01*
X101195238Y-94575238D01*
X101290476Y-94622857D01*
X101480952Y-94670476D01*
X101623809Y-94670476D01*
X101814285Y-94622857D01*
X101909523Y-94575238D01*
X102004761Y-94480000D01*
X102052380Y-94337142D01*
X102052380Y-94241904D01*
X102004761Y-94099047D01*
X101957142Y-94051428D01*
X101623809Y-94051428D01*
X101623809Y-94241904D01*
X101052380Y-93432380D02*
X101052380Y-93241904D01*
X101100000Y-93146666D01*
X101195238Y-93051428D01*
X101385714Y-93003809D01*
X101719047Y-93003809D01*
X101909523Y-93051428D01*
X102004761Y-93146666D01*
X102052380Y-93241904D01*
X102052380Y-93432380D01*
X102004761Y-93527619D01*
X101909523Y-93622857D01*
X101719047Y-93670476D01*
X101385714Y-93670476D01*
X101195238Y-93622857D01*
X101100000Y-93527619D01*
X101052380Y-93432380D01*
X101528571Y-92575238D02*
X101528571Y-92241904D01*
X102052380Y-92099047D02*
X102052380Y-92575238D01*
X101052380Y-92575238D01*
X101052380Y-92099047D01*
X102004761Y-91718095D02*
X102052380Y-91575238D01*
X102052380Y-91337142D01*
X102004761Y-91241904D01*
X101957142Y-91194285D01*
X101861904Y-91146666D01*
X101766666Y-91146666D01*
X101671428Y-91194285D01*
X101623809Y-91241904D01*
X101576190Y-91337142D01*
X101528571Y-91527619D01*
X101480952Y-91622857D01*
X101433333Y-91670476D01*
X101338095Y-91718095D01*
X101242857Y-91718095D01*
X101147619Y-91670476D01*
X101100000Y-91622857D01*
X101052380Y-91527619D01*
X101052380Y-91289523D01*
X101100000Y-91146666D01*
X101052380Y-89765714D02*
X101052380Y-89575238D01*
X101100000Y-89480000D01*
X101195238Y-89384761D01*
X101385714Y-89337142D01*
X101719047Y-89337142D01*
X101909523Y-89384761D01*
X102004761Y-89480000D01*
X102052380Y-89575238D01*
X102052380Y-89765714D01*
X102004761Y-89860952D01*
X101909523Y-89956190D01*
X101719047Y-90003809D01*
X101385714Y-90003809D01*
X101195238Y-89956190D01*
X101100000Y-89860952D01*
X101052380Y-89765714D01*
X102052380Y-88908571D02*
X101052380Y-88908571D01*
X102052380Y-88337142D01*
X101052380Y-88337142D01*
X101052380Y-87241904D02*
X101052380Y-86670476D01*
X102052380Y-86956190D02*
X101052380Y-86956190D01*
X102052380Y-86337142D02*
X101052380Y-86337142D01*
X101528571Y-86337142D02*
X101528571Y-85765714D01*
X102052380Y-85765714D02*
X101052380Y-85765714D01*
X102052380Y-85289523D02*
X101052380Y-85289523D01*
X102004761Y-84860952D02*
X102052380Y-84718095D01*
X102052380Y-84480000D01*
X102004761Y-84384761D01*
X101957142Y-84337142D01*
X101861904Y-84289523D01*
X101766666Y-84289523D01*
X101671428Y-84337142D01*
X101623809Y-84384761D01*
X101576190Y-84480000D01*
X101528571Y-84670476D01*
X101480952Y-84765714D01*
X101433333Y-84813333D01*
X101338095Y-84860952D01*
X101242857Y-84860952D01*
X101147619Y-84813333D01*
X101100000Y-84765714D01*
X101052380Y-84670476D01*
X101052380Y-84432380D01*
X101100000Y-84289523D01*
X102004761Y-83146666D02*
X102052380Y-83003809D01*
X102052380Y-82765714D01*
X102004761Y-82670476D01*
X101957142Y-82622857D01*
X101861904Y-82575238D01*
X101766666Y-82575238D01*
X101671428Y-82622857D01*
X101623809Y-82670476D01*
X101576190Y-82765714D01*
X101528571Y-82956190D01*
X101480952Y-83051428D01*
X101433333Y-83099047D01*
X101338095Y-83146666D01*
X101242857Y-83146666D01*
X101147619Y-83099047D01*
X101100000Y-83051428D01*
X101052380Y-82956190D01*
X101052380Y-82718095D01*
X101100000Y-82575238D01*
X102052380Y-82146666D02*
X101052380Y-82146666D01*
X102052380Y-81670476D02*
X101052380Y-81670476D01*
X101052380Y-81432380D01*
X101100000Y-81289523D01*
X101195238Y-81194285D01*
X101290476Y-81146666D01*
X101480952Y-81099047D01*
X101623809Y-81099047D01*
X101814285Y-81146666D01*
X101909523Y-81194285D01*
X102004761Y-81289523D01*
X102052380Y-81432380D01*
X102052380Y-81670476D01*
X101528571Y-80670476D02*
X101528571Y-80337142D01*
X102052380Y-80194285D02*
X102052380Y-80670476D01*
X101052380Y-80670476D01*
X101052380Y-80194285D01*
%TO.C,470 ohm 1206 resistor*%
X139740714Y-116117714D02*
X139740714Y-116784380D01*
X139502619Y-115736761D02*
X139264523Y-116451047D01*
X139883571Y-116451047D01*
X140169285Y-115784380D02*
X140835952Y-115784380D01*
X140407380Y-116784380D01*
X141407380Y-115784380D02*
X141502619Y-115784380D01*
X141597857Y-115832000D01*
X141645476Y-115879619D01*
X141693095Y-115974857D01*
X141740714Y-116165333D01*
X141740714Y-116403428D01*
X141693095Y-116593904D01*
X141645476Y-116689142D01*
X141597857Y-116736761D01*
X141502619Y-116784380D01*
X141407380Y-116784380D01*
X141312142Y-116736761D01*
X141264523Y-116689142D01*
X141216904Y-116593904D01*
X141169285Y-116403428D01*
X141169285Y-116165333D01*
X141216904Y-115974857D01*
X141264523Y-115879619D01*
X141312142Y-115832000D01*
X141407380Y-115784380D01*
X143074047Y-116784380D02*
X142978809Y-116736761D01*
X142931190Y-116689142D01*
X142883571Y-116593904D01*
X142883571Y-116308190D01*
X142931190Y-116212952D01*
X142978809Y-116165333D01*
X143074047Y-116117714D01*
X143216904Y-116117714D01*
X143312142Y-116165333D01*
X143359761Y-116212952D01*
X143407380Y-116308190D01*
X143407380Y-116593904D01*
X143359761Y-116689142D01*
X143312142Y-116736761D01*
X143216904Y-116784380D01*
X143074047Y-116784380D01*
X143835952Y-116784380D02*
X143835952Y-115784380D01*
X144264523Y-116784380D02*
X144264523Y-116260571D01*
X144216904Y-116165333D01*
X144121666Y-116117714D01*
X143978809Y-116117714D01*
X143883571Y-116165333D01*
X143835952Y-116212952D01*
X144740714Y-116784380D02*
X144740714Y-116117714D01*
X144740714Y-116212952D02*
X144788333Y-116165333D01*
X144883571Y-116117714D01*
X145026428Y-116117714D01*
X145121666Y-116165333D01*
X145169285Y-116260571D01*
X145169285Y-116784380D01*
X145169285Y-116260571D02*
X145216904Y-116165333D01*
X145312142Y-116117714D01*
X145455000Y-116117714D01*
X145550238Y-116165333D01*
X145597857Y-116260571D01*
X145597857Y-116784380D01*
X147359761Y-116784380D02*
X146788333Y-116784380D01*
X147074047Y-116784380D02*
X147074047Y-115784380D01*
X146978809Y-115927238D01*
X146883571Y-116022476D01*
X146788333Y-116070095D01*
X147740714Y-115879619D02*
X147788333Y-115832000D01*
X147883571Y-115784380D01*
X148121666Y-115784380D01*
X148216904Y-115832000D01*
X148264523Y-115879619D01*
X148312142Y-115974857D01*
X148312142Y-116070095D01*
X148264523Y-116212952D01*
X147693095Y-116784380D01*
X148312142Y-116784380D01*
X148931190Y-115784380D02*
X149026428Y-115784380D01*
X149121666Y-115832000D01*
X149169285Y-115879619D01*
X149216904Y-115974857D01*
X149264523Y-116165333D01*
X149264523Y-116403428D01*
X149216904Y-116593904D01*
X149169285Y-116689142D01*
X149121666Y-116736761D01*
X149026428Y-116784380D01*
X148931190Y-116784380D01*
X148835952Y-116736761D01*
X148788333Y-116689142D01*
X148740714Y-116593904D01*
X148693095Y-116403428D01*
X148693095Y-116165333D01*
X148740714Y-115974857D01*
X148788333Y-115879619D01*
X148835952Y-115832000D01*
X148931190Y-115784380D01*
X150121666Y-115784380D02*
X149931190Y-115784380D01*
X149835952Y-115832000D01*
X149788333Y-115879619D01*
X149693095Y-116022476D01*
X149645476Y-116212952D01*
X149645476Y-116593904D01*
X149693095Y-116689142D01*
X149740714Y-116736761D01*
X149835952Y-116784380D01*
X150026428Y-116784380D01*
X150121666Y-116736761D01*
X150169285Y-116689142D01*
X150216904Y-116593904D01*
X150216904Y-116355809D01*
X150169285Y-116260571D01*
X150121666Y-116212952D01*
X150026428Y-116165333D01*
X149835952Y-116165333D01*
X149740714Y-116212952D01*
X149693095Y-116260571D01*
X149645476Y-116355809D01*
X151407380Y-116784380D02*
X151407380Y-116117714D01*
X151407380Y-116308190D02*
X151455000Y-116212952D01*
X151502619Y-116165333D01*
X151597857Y-116117714D01*
X151693095Y-116117714D01*
X152407380Y-116736761D02*
X152312142Y-116784380D01*
X152121666Y-116784380D01*
X152026428Y-116736761D01*
X151978809Y-116641523D01*
X151978809Y-116260571D01*
X152026428Y-116165333D01*
X152121666Y-116117714D01*
X152312142Y-116117714D01*
X152407380Y-116165333D01*
X152455000Y-116260571D01*
X152455000Y-116355809D01*
X151978809Y-116451047D01*
X152835952Y-116736761D02*
X152931190Y-116784380D01*
X153121666Y-116784380D01*
X153216904Y-116736761D01*
X153264523Y-116641523D01*
X153264523Y-116593904D01*
X153216904Y-116498666D01*
X153121666Y-116451047D01*
X152978809Y-116451047D01*
X152883571Y-116403428D01*
X152835952Y-116308190D01*
X152835952Y-116260571D01*
X152883571Y-116165333D01*
X152978809Y-116117714D01*
X153121666Y-116117714D01*
X153216904Y-116165333D01*
X153693095Y-116784380D02*
X153693095Y-116117714D01*
X153693095Y-115784380D02*
X153645476Y-115832000D01*
X153693095Y-115879619D01*
X153740714Y-115832000D01*
X153693095Y-115784380D01*
X153693095Y-115879619D01*
X154121666Y-116736761D02*
X154216904Y-116784380D01*
X154407380Y-116784380D01*
X154502619Y-116736761D01*
X154550238Y-116641523D01*
X154550238Y-116593904D01*
X154502619Y-116498666D01*
X154407380Y-116451047D01*
X154264523Y-116451047D01*
X154169285Y-116403428D01*
X154121666Y-116308190D01*
X154121666Y-116260571D01*
X154169285Y-116165333D01*
X154264523Y-116117714D01*
X154407380Y-116117714D01*
X154502619Y-116165333D01*
X154835952Y-116117714D02*
X155216904Y-116117714D01*
X154978809Y-115784380D02*
X154978809Y-116641523D01*
X155026428Y-116736761D01*
X155121666Y-116784380D01*
X155216904Y-116784380D01*
X155693095Y-116784380D02*
X155597857Y-116736761D01*
X155550238Y-116689142D01*
X155502619Y-116593904D01*
X155502619Y-116308190D01*
X155550238Y-116212952D01*
X155597857Y-116165333D01*
X155693095Y-116117714D01*
X155835952Y-116117714D01*
X155931190Y-116165333D01*
X155978809Y-116212952D01*
X156026428Y-116308190D01*
X156026428Y-116593904D01*
X155978809Y-116689142D01*
X155931190Y-116736761D01*
X155835952Y-116784380D01*
X155693095Y-116784380D01*
X156455000Y-116784380D02*
X156455000Y-116117714D01*
X156455000Y-116308190D02*
X156502619Y-116212952D01*
X156550238Y-116165333D01*
X156645476Y-116117714D01*
X156740714Y-116117714D01*
X139867714Y-110783714D02*
X139867714Y-111450380D01*
X139629619Y-110402761D02*
X139391523Y-111117047D01*
X140010571Y-111117047D01*
X140296285Y-110450380D02*
X140962952Y-110450380D01*
X140534380Y-111450380D01*
X141534380Y-110450380D02*
X141629619Y-110450380D01*
X141724857Y-110498000D01*
X141772476Y-110545619D01*
X141820095Y-110640857D01*
X141867714Y-110831333D01*
X141867714Y-111069428D01*
X141820095Y-111259904D01*
X141772476Y-111355142D01*
X141724857Y-111402761D01*
X141629619Y-111450380D01*
X141534380Y-111450380D01*
X141439142Y-111402761D01*
X141391523Y-111355142D01*
X141343904Y-111259904D01*
X141296285Y-111069428D01*
X141296285Y-110831333D01*
X141343904Y-110640857D01*
X141391523Y-110545619D01*
X141439142Y-110498000D01*
X141534380Y-110450380D01*
X143201047Y-111450380D02*
X143105809Y-111402761D01*
X143058190Y-111355142D01*
X143010571Y-111259904D01*
X143010571Y-110974190D01*
X143058190Y-110878952D01*
X143105809Y-110831333D01*
X143201047Y-110783714D01*
X143343904Y-110783714D01*
X143439142Y-110831333D01*
X143486761Y-110878952D01*
X143534380Y-110974190D01*
X143534380Y-111259904D01*
X143486761Y-111355142D01*
X143439142Y-111402761D01*
X143343904Y-111450380D01*
X143201047Y-111450380D01*
X143962952Y-111450380D02*
X143962952Y-110450380D01*
X144391523Y-111450380D02*
X144391523Y-110926571D01*
X144343904Y-110831333D01*
X144248666Y-110783714D01*
X144105809Y-110783714D01*
X144010571Y-110831333D01*
X143962952Y-110878952D01*
X144867714Y-111450380D02*
X144867714Y-110783714D01*
X144867714Y-110878952D02*
X144915333Y-110831333D01*
X145010571Y-110783714D01*
X145153428Y-110783714D01*
X145248666Y-110831333D01*
X145296285Y-110926571D01*
X145296285Y-111450380D01*
X145296285Y-110926571D02*
X145343904Y-110831333D01*
X145439142Y-110783714D01*
X145582000Y-110783714D01*
X145677238Y-110831333D01*
X145724857Y-110926571D01*
X145724857Y-111450380D01*
X147486761Y-111450380D02*
X146915333Y-111450380D01*
X147201047Y-111450380D02*
X147201047Y-110450380D01*
X147105809Y-110593238D01*
X147010571Y-110688476D01*
X146915333Y-110736095D01*
X147867714Y-110545619D02*
X147915333Y-110498000D01*
X148010571Y-110450380D01*
X148248666Y-110450380D01*
X148343904Y-110498000D01*
X148391523Y-110545619D01*
X148439142Y-110640857D01*
X148439142Y-110736095D01*
X148391523Y-110878952D01*
X147820095Y-111450380D01*
X148439142Y-111450380D01*
X149058190Y-110450380D02*
X149153428Y-110450380D01*
X149248666Y-110498000D01*
X149296285Y-110545619D01*
X149343904Y-110640857D01*
X149391523Y-110831333D01*
X149391523Y-111069428D01*
X149343904Y-111259904D01*
X149296285Y-111355142D01*
X149248666Y-111402761D01*
X149153428Y-111450380D01*
X149058190Y-111450380D01*
X148962952Y-111402761D01*
X148915333Y-111355142D01*
X148867714Y-111259904D01*
X148820095Y-111069428D01*
X148820095Y-110831333D01*
X148867714Y-110640857D01*
X148915333Y-110545619D01*
X148962952Y-110498000D01*
X149058190Y-110450380D01*
X150248666Y-110450380D02*
X150058190Y-110450380D01*
X149962952Y-110498000D01*
X149915333Y-110545619D01*
X149820095Y-110688476D01*
X149772476Y-110878952D01*
X149772476Y-111259904D01*
X149820095Y-111355142D01*
X149867714Y-111402761D01*
X149962952Y-111450380D01*
X150153428Y-111450380D01*
X150248666Y-111402761D01*
X150296285Y-111355142D01*
X150343904Y-111259904D01*
X150343904Y-111021809D01*
X150296285Y-110926571D01*
X150248666Y-110878952D01*
X150153428Y-110831333D01*
X149962952Y-110831333D01*
X149867714Y-110878952D01*
X149820095Y-110926571D01*
X149772476Y-111021809D01*
X151534380Y-111450380D02*
X151534380Y-110783714D01*
X151534380Y-110974190D02*
X151582000Y-110878952D01*
X151629619Y-110831333D01*
X151724857Y-110783714D01*
X151820095Y-110783714D01*
X152534380Y-111402761D02*
X152439142Y-111450380D01*
X152248666Y-111450380D01*
X152153428Y-111402761D01*
X152105809Y-111307523D01*
X152105809Y-110926571D01*
X152153428Y-110831333D01*
X152248666Y-110783714D01*
X152439142Y-110783714D01*
X152534380Y-110831333D01*
X152582000Y-110926571D01*
X152582000Y-111021809D01*
X152105809Y-111117047D01*
X152962952Y-111402761D02*
X153058190Y-111450380D01*
X153248666Y-111450380D01*
X153343904Y-111402761D01*
X153391523Y-111307523D01*
X153391523Y-111259904D01*
X153343904Y-111164666D01*
X153248666Y-111117047D01*
X153105809Y-111117047D01*
X153010571Y-111069428D01*
X152962952Y-110974190D01*
X152962952Y-110926571D01*
X153010571Y-110831333D01*
X153105809Y-110783714D01*
X153248666Y-110783714D01*
X153343904Y-110831333D01*
X153820095Y-111450380D02*
X153820095Y-110783714D01*
X153820095Y-110450380D02*
X153772476Y-110498000D01*
X153820095Y-110545619D01*
X153867714Y-110498000D01*
X153820095Y-110450380D01*
X153820095Y-110545619D01*
X154248666Y-111402761D02*
X154343904Y-111450380D01*
X154534380Y-111450380D01*
X154629619Y-111402761D01*
X154677238Y-111307523D01*
X154677238Y-111259904D01*
X154629619Y-111164666D01*
X154534380Y-111117047D01*
X154391523Y-111117047D01*
X154296285Y-111069428D01*
X154248666Y-110974190D01*
X154248666Y-110926571D01*
X154296285Y-110831333D01*
X154391523Y-110783714D01*
X154534380Y-110783714D01*
X154629619Y-110831333D01*
X154962952Y-110783714D02*
X155343904Y-110783714D01*
X155105809Y-110450380D02*
X155105809Y-111307523D01*
X155153428Y-111402761D01*
X155248666Y-111450380D01*
X155343904Y-111450380D01*
X155820095Y-111450380D02*
X155724857Y-111402761D01*
X155677238Y-111355142D01*
X155629619Y-111259904D01*
X155629619Y-110974190D01*
X155677238Y-110878952D01*
X155724857Y-110831333D01*
X155820095Y-110783714D01*
X155962952Y-110783714D01*
X156058190Y-110831333D01*
X156105809Y-110878952D01*
X156153428Y-110974190D01*
X156153428Y-111259904D01*
X156105809Y-111355142D01*
X156058190Y-111402761D01*
X155962952Y-111450380D01*
X155820095Y-111450380D01*
X156582000Y-111450380D02*
X156582000Y-110783714D01*
X156582000Y-110974190D02*
X156629619Y-110878952D01*
X156677238Y-110831333D01*
X156772476Y-110783714D01*
X156867714Y-110783714D01*
X121325714Y-81065714D02*
X121325714Y-81732380D01*
X121087619Y-80684761D02*
X120849523Y-81399047D01*
X121468571Y-81399047D01*
X121754285Y-80732380D02*
X122420952Y-80732380D01*
X121992380Y-81732380D01*
X122992380Y-80732380D02*
X123087619Y-80732380D01*
X123182857Y-80780000D01*
X123230476Y-80827619D01*
X123278095Y-80922857D01*
X123325714Y-81113333D01*
X123325714Y-81351428D01*
X123278095Y-81541904D01*
X123230476Y-81637142D01*
X123182857Y-81684761D01*
X123087619Y-81732380D01*
X122992380Y-81732380D01*
X122897142Y-81684761D01*
X122849523Y-81637142D01*
X122801904Y-81541904D01*
X122754285Y-81351428D01*
X122754285Y-81113333D01*
X122801904Y-80922857D01*
X122849523Y-80827619D01*
X122897142Y-80780000D01*
X122992380Y-80732380D01*
X124659047Y-81732380D02*
X124563809Y-81684761D01*
X124516190Y-81637142D01*
X124468571Y-81541904D01*
X124468571Y-81256190D01*
X124516190Y-81160952D01*
X124563809Y-81113333D01*
X124659047Y-81065714D01*
X124801904Y-81065714D01*
X124897142Y-81113333D01*
X124944761Y-81160952D01*
X124992380Y-81256190D01*
X124992380Y-81541904D01*
X124944761Y-81637142D01*
X124897142Y-81684761D01*
X124801904Y-81732380D01*
X124659047Y-81732380D01*
X125420952Y-81732380D02*
X125420952Y-80732380D01*
X125849523Y-81732380D02*
X125849523Y-81208571D01*
X125801904Y-81113333D01*
X125706666Y-81065714D01*
X125563809Y-81065714D01*
X125468571Y-81113333D01*
X125420952Y-81160952D01*
X126325714Y-81732380D02*
X126325714Y-81065714D01*
X126325714Y-81160952D02*
X126373333Y-81113333D01*
X126468571Y-81065714D01*
X126611428Y-81065714D01*
X126706666Y-81113333D01*
X126754285Y-81208571D01*
X126754285Y-81732380D01*
X126754285Y-81208571D02*
X126801904Y-81113333D01*
X126897142Y-81065714D01*
X127040000Y-81065714D01*
X127135238Y-81113333D01*
X127182857Y-81208571D01*
X127182857Y-81732380D01*
X128944761Y-81732380D02*
X128373333Y-81732380D01*
X128659047Y-81732380D02*
X128659047Y-80732380D01*
X128563809Y-80875238D01*
X128468571Y-80970476D01*
X128373333Y-81018095D01*
X129325714Y-80827619D02*
X129373333Y-80780000D01*
X129468571Y-80732380D01*
X129706666Y-80732380D01*
X129801904Y-80780000D01*
X129849523Y-80827619D01*
X129897142Y-80922857D01*
X129897142Y-81018095D01*
X129849523Y-81160952D01*
X129278095Y-81732380D01*
X129897142Y-81732380D01*
X130516190Y-80732380D02*
X130611428Y-80732380D01*
X130706666Y-80780000D01*
X130754285Y-80827619D01*
X130801904Y-80922857D01*
X130849523Y-81113333D01*
X130849523Y-81351428D01*
X130801904Y-81541904D01*
X130754285Y-81637142D01*
X130706666Y-81684761D01*
X130611428Y-81732380D01*
X130516190Y-81732380D01*
X130420952Y-81684761D01*
X130373333Y-81637142D01*
X130325714Y-81541904D01*
X130278095Y-81351428D01*
X130278095Y-81113333D01*
X130325714Y-80922857D01*
X130373333Y-80827619D01*
X130420952Y-80780000D01*
X130516190Y-80732380D01*
X131706666Y-80732380D02*
X131516190Y-80732380D01*
X131420952Y-80780000D01*
X131373333Y-80827619D01*
X131278095Y-80970476D01*
X131230476Y-81160952D01*
X131230476Y-81541904D01*
X131278095Y-81637142D01*
X131325714Y-81684761D01*
X131420952Y-81732380D01*
X131611428Y-81732380D01*
X131706666Y-81684761D01*
X131754285Y-81637142D01*
X131801904Y-81541904D01*
X131801904Y-81303809D01*
X131754285Y-81208571D01*
X131706666Y-81160952D01*
X131611428Y-81113333D01*
X131420952Y-81113333D01*
X131325714Y-81160952D01*
X131278095Y-81208571D01*
X131230476Y-81303809D01*
X132992380Y-81732380D02*
X132992380Y-81065714D01*
X132992380Y-81256190D02*
X133039999Y-81160952D01*
X133087619Y-81113333D01*
X133182857Y-81065714D01*
X133278095Y-81065714D01*
X133992380Y-81684761D02*
X133897142Y-81732380D01*
X133706666Y-81732380D01*
X133611428Y-81684761D01*
X133563809Y-81589523D01*
X133563809Y-81208571D01*
X133611428Y-81113333D01*
X133706666Y-81065714D01*
X133897142Y-81065714D01*
X133992380Y-81113333D01*
X134039999Y-81208571D01*
X134039999Y-81303809D01*
X133563809Y-81399047D01*
X134420952Y-81684761D02*
X134516190Y-81732380D01*
X134706666Y-81732380D01*
X134801904Y-81684761D01*
X134849523Y-81589523D01*
X134849523Y-81541904D01*
X134801904Y-81446666D01*
X134706666Y-81399047D01*
X134563809Y-81399047D01*
X134468571Y-81351428D01*
X134420952Y-81256190D01*
X134420952Y-81208571D01*
X134468571Y-81113333D01*
X134563809Y-81065714D01*
X134706666Y-81065714D01*
X134801904Y-81113333D01*
X135278095Y-81732380D02*
X135278095Y-81065714D01*
X135278095Y-80732380D02*
X135230476Y-80780000D01*
X135278095Y-80827619D01*
X135325714Y-80780000D01*
X135278095Y-80732380D01*
X135278095Y-80827619D01*
X135706666Y-81684761D02*
X135801904Y-81732380D01*
X135992380Y-81732380D01*
X136087619Y-81684761D01*
X136135238Y-81589523D01*
X136135238Y-81541904D01*
X136087619Y-81446666D01*
X135992380Y-81399047D01*
X135849523Y-81399047D01*
X135754285Y-81351428D01*
X135706666Y-81256190D01*
X135706666Y-81208571D01*
X135754285Y-81113333D01*
X135849523Y-81065714D01*
X135992380Y-81065714D01*
X136087619Y-81113333D01*
X136420952Y-81065714D02*
X136801904Y-81065714D01*
X136563809Y-80732380D02*
X136563809Y-81589523D01*
X136611428Y-81684761D01*
X136706666Y-81732380D01*
X136801904Y-81732380D01*
X137278095Y-81732380D02*
X137182857Y-81684761D01*
X137135238Y-81637142D01*
X137087619Y-81541904D01*
X137087619Y-81256190D01*
X137135238Y-81160952D01*
X137182857Y-81113333D01*
X137278095Y-81065714D01*
X137420952Y-81065714D01*
X137516190Y-81113333D01*
X137563809Y-81160952D01*
X137611428Y-81256190D01*
X137611428Y-81541904D01*
X137563809Y-81637142D01*
X137516190Y-81684761D01*
X137420952Y-81732380D01*
X137278095Y-81732380D01*
X138040000Y-81732380D02*
X138040000Y-81065714D01*
X138040000Y-81256190D02*
X138087619Y-81160952D01*
X138135238Y-81113333D01*
X138230476Y-81065714D01*
X138325714Y-81065714D01*
%TO.C,Fan 5*%
X166650571Y-117657047D02*
X166650571Y-117990380D01*
X167174380Y-117990380D02*
X166174380Y-117990380D01*
X166174380Y-117514190D01*
X167174380Y-116704666D02*
X166650571Y-116704666D01*
X166555333Y-116752285D01*
X166507714Y-116847523D01*
X166507714Y-117038000D01*
X166555333Y-117133238D01*
X167126761Y-116704666D02*
X167174380Y-116799904D01*
X167174380Y-117038000D01*
X167126761Y-117133238D01*
X167031523Y-117180857D01*
X166936285Y-117180857D01*
X166841047Y-117133238D01*
X166793428Y-117038000D01*
X166793428Y-116799904D01*
X166745809Y-116704666D01*
X166507714Y-116228476D02*
X167174380Y-116228476D01*
X166602952Y-116228476D02*
X166555333Y-116180857D01*
X166507714Y-116085619D01*
X166507714Y-115942761D01*
X166555333Y-115847523D01*
X166650571Y-115799904D01*
X167174380Y-115799904D01*
X166174380Y-114085619D02*
X166174380Y-114561809D01*
X166650571Y-114609428D01*
X166602952Y-114561809D01*
X166555333Y-114466571D01*
X166555333Y-114228476D01*
X166602952Y-114133238D01*
X166650571Y-114085619D01*
X166745809Y-114038000D01*
X166983904Y-114038000D01*
X167079142Y-114085619D01*
X167126761Y-114133238D01*
X167174380Y-114228476D01*
X167174380Y-114466571D01*
X167126761Y-114561809D01*
X167079142Y-114609428D01*
%TO.C,RGB_1*%
X110212380Y-74112380D02*
X109879047Y-73636190D01*
X109640952Y-74112380D02*
X109640952Y-73112380D01*
X110021904Y-73112380D01*
X110117142Y-73160000D01*
X110164761Y-73207619D01*
X110212380Y-73302857D01*
X110212380Y-73445714D01*
X110164761Y-73540952D01*
X110117142Y-73588571D01*
X110021904Y-73636190D01*
X109640952Y-73636190D01*
X111164761Y-73160000D02*
X111069523Y-73112380D01*
X110926666Y-73112380D01*
X110783809Y-73160000D01*
X110688571Y-73255238D01*
X110640952Y-73350476D01*
X110593333Y-73540952D01*
X110593333Y-73683809D01*
X110640952Y-73874285D01*
X110688571Y-73969523D01*
X110783809Y-74064761D01*
X110926666Y-74112380D01*
X111021904Y-74112380D01*
X111164761Y-74064761D01*
X111212380Y-74017142D01*
X111212380Y-73683809D01*
X111021904Y-73683809D01*
X111974285Y-73588571D02*
X112117142Y-73636190D01*
X112164761Y-73683809D01*
X112212380Y-73779047D01*
X112212380Y-73921904D01*
X112164761Y-74017142D01*
X112117142Y-74064761D01*
X112021904Y-74112380D01*
X111640952Y-74112380D01*
X111640952Y-73112380D01*
X111974285Y-73112380D01*
X112069523Y-73160000D01*
X112117142Y-73207619D01*
X112164761Y-73302857D01*
X112164761Y-73398095D01*
X112117142Y-73493333D01*
X112069523Y-73540952D01*
X111974285Y-73588571D01*
X111640952Y-73588571D01*
X112402857Y-74207619D02*
X113164761Y-74207619D01*
X113926666Y-74112380D02*
X113355238Y-74112380D01*
X113640952Y-74112380D02*
X113640952Y-73112380D01*
X113545714Y-73255238D01*
X113450476Y-73350476D01*
X113355238Y-73398095D01*
%TO.C,RGB_4*%
X135612380Y-74112380D02*
X135279047Y-73636190D01*
X135040952Y-74112380D02*
X135040952Y-73112380D01*
X135421904Y-73112380D01*
X135517142Y-73160000D01*
X135564761Y-73207619D01*
X135612380Y-73302857D01*
X135612380Y-73445714D01*
X135564761Y-73540952D01*
X135517142Y-73588571D01*
X135421904Y-73636190D01*
X135040952Y-73636190D01*
X136564761Y-73160000D02*
X136469523Y-73112380D01*
X136326666Y-73112380D01*
X136183809Y-73160000D01*
X136088571Y-73255238D01*
X136040952Y-73350476D01*
X135993333Y-73540952D01*
X135993333Y-73683809D01*
X136040952Y-73874285D01*
X136088571Y-73969523D01*
X136183809Y-74064761D01*
X136326666Y-74112380D01*
X136421904Y-74112380D01*
X136564761Y-74064761D01*
X136612380Y-74017142D01*
X136612380Y-73683809D01*
X136421904Y-73683809D01*
X137374285Y-73588571D02*
X137517142Y-73636190D01*
X137564761Y-73683809D01*
X137612380Y-73779047D01*
X137612380Y-73921904D01*
X137564761Y-74017142D01*
X137517142Y-74064761D01*
X137421904Y-74112380D01*
X137040952Y-74112380D01*
X137040952Y-73112380D01*
X137374285Y-73112380D01*
X137469523Y-73160000D01*
X137517142Y-73207619D01*
X137564761Y-73302857D01*
X137564761Y-73398095D01*
X137517142Y-73493333D01*
X137469523Y-73540952D01*
X137374285Y-73588571D01*
X137040952Y-73588571D01*
X137802857Y-74207619D02*
X138564761Y-74207619D01*
X139231428Y-73445714D02*
X139231428Y-74112380D01*
X138993333Y-73064761D02*
X138755238Y-73779047D01*
X139374285Y-73779047D01*
%TO.C,RGB_5*%
X145772380Y-74112380D02*
X145439047Y-73636190D01*
X145200952Y-74112380D02*
X145200952Y-73112380D01*
X145581904Y-73112380D01*
X145677142Y-73160000D01*
X145724761Y-73207619D01*
X145772380Y-73302857D01*
X145772380Y-73445714D01*
X145724761Y-73540952D01*
X145677142Y-73588571D01*
X145581904Y-73636190D01*
X145200952Y-73636190D01*
X146724761Y-73160000D02*
X146629523Y-73112380D01*
X146486666Y-73112380D01*
X146343809Y-73160000D01*
X146248571Y-73255238D01*
X146200952Y-73350476D01*
X146153333Y-73540952D01*
X146153333Y-73683809D01*
X146200952Y-73874285D01*
X146248571Y-73969523D01*
X146343809Y-74064761D01*
X146486666Y-74112380D01*
X146581904Y-74112380D01*
X146724761Y-74064761D01*
X146772380Y-74017142D01*
X146772380Y-73683809D01*
X146581904Y-73683809D01*
X147534285Y-73588571D02*
X147677142Y-73636190D01*
X147724761Y-73683809D01*
X147772380Y-73779047D01*
X147772380Y-73921904D01*
X147724761Y-74017142D01*
X147677142Y-74064761D01*
X147581904Y-74112380D01*
X147200952Y-74112380D01*
X147200952Y-73112380D01*
X147534285Y-73112380D01*
X147629523Y-73160000D01*
X147677142Y-73207619D01*
X147724761Y-73302857D01*
X147724761Y-73398095D01*
X147677142Y-73493333D01*
X147629523Y-73540952D01*
X147534285Y-73588571D01*
X147200952Y-73588571D01*
X147962857Y-74207619D02*
X148724761Y-74207619D01*
X149439047Y-73112380D02*
X148962857Y-73112380D01*
X148915238Y-73588571D01*
X148962857Y-73540952D01*
X149058095Y-73493333D01*
X149296190Y-73493333D01*
X149391428Y-73540952D01*
X149439047Y-73588571D01*
X149486666Y-73683809D01*
X149486666Y-73921904D01*
X149439047Y-74017142D01*
X149391428Y-74064761D01*
X149296190Y-74112380D01*
X149058095Y-74112380D01*
X148962857Y-74064761D01*
X148915238Y-74017142D01*
%TO.C,Fan 2*%
X167701571Y-87989047D02*
X167701571Y-88322380D01*
X168225380Y-88322380D02*
X167225380Y-88322380D01*
X167225380Y-87846190D01*
X168225380Y-87036666D02*
X167701571Y-87036666D01*
X167606333Y-87084285D01*
X167558714Y-87179523D01*
X167558714Y-87370000D01*
X167606333Y-87465238D01*
X168177761Y-87036666D02*
X168225380Y-87131904D01*
X168225380Y-87370000D01*
X168177761Y-87465238D01*
X168082523Y-87512857D01*
X167987285Y-87512857D01*
X167892047Y-87465238D01*
X167844428Y-87370000D01*
X167844428Y-87131904D01*
X167796809Y-87036666D01*
X167558714Y-86560476D02*
X168225380Y-86560476D01*
X167653952Y-86560476D02*
X167606333Y-86512857D01*
X167558714Y-86417619D01*
X167558714Y-86274761D01*
X167606333Y-86179523D01*
X167701571Y-86131904D01*
X168225380Y-86131904D01*
X167320619Y-84941428D02*
X167273000Y-84893809D01*
X167225380Y-84798571D01*
X167225380Y-84560476D01*
X167273000Y-84465238D01*
X167320619Y-84417619D01*
X167415857Y-84370000D01*
X167511095Y-84370000D01*
X167653952Y-84417619D01*
X168225380Y-84989047D01*
X168225380Y-84370000D01*
%TO.C,RGB_2*%
X120372380Y-74112380D02*
X120039047Y-73636190D01*
X119800952Y-74112380D02*
X119800952Y-73112380D01*
X120181904Y-73112380D01*
X120277142Y-73160000D01*
X120324761Y-73207619D01*
X120372380Y-73302857D01*
X120372380Y-73445714D01*
X120324761Y-73540952D01*
X120277142Y-73588571D01*
X120181904Y-73636190D01*
X119800952Y-73636190D01*
X121324761Y-73160000D02*
X121229523Y-73112380D01*
X121086666Y-73112380D01*
X120943809Y-73160000D01*
X120848571Y-73255238D01*
X120800952Y-73350476D01*
X120753333Y-73540952D01*
X120753333Y-73683809D01*
X120800952Y-73874285D01*
X120848571Y-73969523D01*
X120943809Y-74064761D01*
X121086666Y-74112380D01*
X121181904Y-74112380D01*
X121324761Y-74064761D01*
X121372380Y-74017142D01*
X121372380Y-73683809D01*
X121181904Y-73683809D01*
X122134285Y-73588571D02*
X122277142Y-73636190D01*
X122324761Y-73683809D01*
X122372380Y-73779047D01*
X122372380Y-73921904D01*
X122324761Y-74017142D01*
X122277142Y-74064761D01*
X122181904Y-74112380D01*
X121800952Y-74112380D01*
X121800952Y-73112380D01*
X122134285Y-73112380D01*
X122229523Y-73160000D01*
X122277142Y-73207619D01*
X122324761Y-73302857D01*
X122324761Y-73398095D01*
X122277142Y-73493333D01*
X122229523Y-73540952D01*
X122134285Y-73588571D01*
X121800952Y-73588571D01*
X122562857Y-74207619D02*
X123324761Y-74207619D01*
X123515238Y-73207619D02*
X123562857Y-73160000D01*
X123658095Y-73112380D01*
X123896190Y-73112380D01*
X123991428Y-73160000D01*
X124039047Y-73207619D01*
X124086666Y-73302857D01*
X124086666Y-73398095D01*
X124039047Y-73540952D01*
X123467619Y-74112380D01*
X124086666Y-74112380D01*
%TO.C,RGB_3*%
X127992380Y-74112380D02*
X127659047Y-73636190D01*
X127420952Y-74112380D02*
X127420952Y-73112380D01*
X127801904Y-73112380D01*
X127897142Y-73160000D01*
X127944761Y-73207619D01*
X127992380Y-73302857D01*
X127992380Y-73445714D01*
X127944761Y-73540952D01*
X127897142Y-73588571D01*
X127801904Y-73636190D01*
X127420952Y-73636190D01*
X128944761Y-73160000D02*
X128849523Y-73112380D01*
X128706666Y-73112380D01*
X128563809Y-73160000D01*
X128468571Y-73255238D01*
X128420952Y-73350476D01*
X128373333Y-73540952D01*
X128373333Y-73683809D01*
X128420952Y-73874285D01*
X128468571Y-73969523D01*
X128563809Y-74064761D01*
X128706666Y-74112380D01*
X128801904Y-74112380D01*
X128944761Y-74064761D01*
X128992380Y-74017142D01*
X128992380Y-73683809D01*
X128801904Y-73683809D01*
X129754285Y-73588571D02*
X129897142Y-73636190D01*
X129944761Y-73683809D01*
X129992380Y-73779047D01*
X129992380Y-73921904D01*
X129944761Y-74017142D01*
X129897142Y-74064761D01*
X129801904Y-74112380D01*
X129420952Y-74112380D01*
X129420952Y-73112380D01*
X129754285Y-73112380D01*
X129849523Y-73160000D01*
X129897142Y-73207619D01*
X129944761Y-73302857D01*
X129944761Y-73398095D01*
X129897142Y-73493333D01*
X129849523Y-73540952D01*
X129754285Y-73588571D01*
X129420952Y-73588571D01*
X130182857Y-74207619D02*
X130944761Y-74207619D01*
X131087619Y-73112380D02*
X131706666Y-73112380D01*
X131373333Y-73493333D01*
X131516190Y-73493333D01*
X131611428Y-73540952D01*
X131659047Y-73588571D01*
X131706666Y-73683809D01*
X131706666Y-73921904D01*
X131659047Y-74017142D01*
X131611428Y-74064761D01*
X131516190Y-74112380D01*
X131230476Y-74112380D01*
X131135238Y-74064761D01*
X131087619Y-74017142D01*
%TO.C,SATA CONNECTOR*%
X86070761Y-100313333D02*
X86118380Y-100170476D01*
X86118380Y-99932380D01*
X86070761Y-99837142D01*
X86023142Y-99789523D01*
X85927904Y-99741904D01*
X85832666Y-99741904D01*
X85737428Y-99789523D01*
X85689809Y-99837142D01*
X85642190Y-99932380D01*
X85594571Y-100122857D01*
X85546952Y-100218095D01*
X85499333Y-100265714D01*
X85404095Y-100313333D01*
X85308857Y-100313333D01*
X85213619Y-100265714D01*
X85166000Y-100218095D01*
X85118380Y-100122857D01*
X85118380Y-99884761D01*
X85166000Y-99741904D01*
X85832666Y-99360952D02*
X85832666Y-98884761D01*
X86118380Y-99456190D02*
X85118380Y-99122857D01*
X86118380Y-98789523D01*
X85118380Y-98599047D02*
X85118380Y-98027619D01*
X86118380Y-98313333D02*
X85118380Y-98313333D01*
X85832666Y-97741904D02*
X85832666Y-97265714D01*
X86118380Y-97837142D02*
X85118380Y-97503809D01*
X86118380Y-97170476D01*
X86023142Y-95503809D02*
X86070761Y-95551428D01*
X86118380Y-95694285D01*
X86118380Y-95789523D01*
X86070761Y-95932380D01*
X85975523Y-96027619D01*
X85880285Y-96075238D01*
X85689809Y-96122857D01*
X85546952Y-96122857D01*
X85356476Y-96075238D01*
X85261238Y-96027619D01*
X85166000Y-95932380D01*
X85118380Y-95789523D01*
X85118380Y-95694285D01*
X85166000Y-95551428D01*
X85213619Y-95503809D01*
X85118380Y-94884761D02*
X85118380Y-94694285D01*
X85166000Y-94599047D01*
X85261238Y-94503809D01*
X85451714Y-94456190D01*
X85785047Y-94456190D01*
X85975523Y-94503809D01*
X86070761Y-94599047D01*
X86118380Y-94694285D01*
X86118380Y-94884761D01*
X86070761Y-94980000D01*
X85975523Y-95075238D01*
X85785047Y-95122857D01*
X85451714Y-95122857D01*
X85261238Y-95075238D01*
X85166000Y-94980000D01*
X85118380Y-94884761D01*
X86118380Y-94027619D02*
X85118380Y-94027619D01*
X86118380Y-93456190D01*
X85118380Y-93456190D01*
X86118380Y-92980000D02*
X85118380Y-92980000D01*
X86118380Y-92408571D01*
X85118380Y-92408571D01*
X85594571Y-91932380D02*
X85594571Y-91599047D01*
X86118380Y-91456190D02*
X86118380Y-91932380D01*
X85118380Y-91932380D01*
X85118380Y-91456190D01*
X86023142Y-90456190D02*
X86070761Y-90503809D01*
X86118380Y-90646666D01*
X86118380Y-90741904D01*
X86070761Y-90884761D01*
X85975523Y-90980000D01*
X85880285Y-91027619D01*
X85689809Y-91075238D01*
X85546952Y-91075238D01*
X85356476Y-91027619D01*
X85261238Y-90980000D01*
X85166000Y-90884761D01*
X85118380Y-90741904D01*
X85118380Y-90646666D01*
X85166000Y-90503809D01*
X85213619Y-90456190D01*
X85118380Y-90170476D02*
X85118380Y-89599047D01*
X86118380Y-89884761D02*
X85118380Y-89884761D01*
X85118380Y-89075238D02*
X85118380Y-88884761D01*
X85166000Y-88789523D01*
X85261238Y-88694285D01*
X85451714Y-88646666D01*
X85785047Y-88646666D01*
X85975523Y-88694285D01*
X86070761Y-88789523D01*
X86118380Y-88884761D01*
X86118380Y-89075238D01*
X86070761Y-89170476D01*
X85975523Y-89265714D01*
X85785047Y-89313333D01*
X85451714Y-89313333D01*
X85261238Y-89265714D01*
X85166000Y-89170476D01*
X85118380Y-89075238D01*
X86118380Y-87646666D02*
X85642190Y-87980000D01*
X86118380Y-88218095D02*
X85118380Y-88218095D01*
X85118380Y-87837142D01*
X85166000Y-87741904D01*
X85213619Y-87694285D01*
X85308857Y-87646666D01*
X85451714Y-87646666D01*
X85546952Y-87694285D01*
X85594571Y-87741904D01*
X85642190Y-87837142D01*
X85642190Y-88218095D01*
%TO.C,Fan 3*%
X167447571Y-98149047D02*
X167447571Y-98482380D01*
X167971380Y-98482380D02*
X166971380Y-98482380D01*
X166971380Y-98006190D01*
X167971380Y-97196666D02*
X167447571Y-97196666D01*
X167352333Y-97244285D01*
X167304714Y-97339523D01*
X167304714Y-97530000D01*
X167352333Y-97625238D01*
X167923761Y-97196666D02*
X167971380Y-97291904D01*
X167971380Y-97530000D01*
X167923761Y-97625238D01*
X167828523Y-97672857D01*
X167733285Y-97672857D01*
X167638047Y-97625238D01*
X167590428Y-97530000D01*
X167590428Y-97291904D01*
X167542809Y-97196666D01*
X167304714Y-96720476D02*
X167971380Y-96720476D01*
X167399952Y-96720476D02*
X167352333Y-96672857D01*
X167304714Y-96577619D01*
X167304714Y-96434761D01*
X167352333Y-96339523D01*
X167447571Y-96291904D01*
X167971380Y-96291904D01*
X166971380Y-95149047D02*
X166971380Y-94530000D01*
X167352333Y-94863333D01*
X167352333Y-94720476D01*
X167399952Y-94625238D01*
X167447571Y-94577619D01*
X167542809Y-94530000D01*
X167780904Y-94530000D01*
X167876142Y-94577619D01*
X167923761Y-94625238D01*
X167971380Y-94720476D01*
X167971380Y-95006190D01*
X167923761Y-95101428D01*
X167876142Y-95149047D01*
%TO.C,Fan 1*%
X167568571Y-77819047D02*
X167568571Y-78152380D01*
X168092380Y-78152380D02*
X167092380Y-78152380D01*
X167092380Y-77676190D01*
X168092380Y-76866666D02*
X167568571Y-76866666D01*
X167473333Y-76914285D01*
X167425714Y-77009523D01*
X167425714Y-77200000D01*
X167473333Y-77295238D01*
X168044761Y-76866666D02*
X168092380Y-76961904D01*
X168092380Y-77200000D01*
X168044761Y-77295238D01*
X167949523Y-77342857D01*
X167854285Y-77342857D01*
X167759047Y-77295238D01*
X167711428Y-77200000D01*
X167711428Y-76961904D01*
X167663809Y-76866666D01*
X167425714Y-76390476D02*
X168092380Y-76390476D01*
X167520952Y-76390476D02*
X167473333Y-76342857D01*
X167425714Y-76247619D01*
X167425714Y-76104761D01*
X167473333Y-76009523D01*
X167568571Y-75961904D01*
X168092380Y-75961904D01*
X168092380Y-74200000D02*
X168092380Y-74771428D01*
X168092380Y-74485714D02*
X167092380Y-74485714D01*
X167235238Y-74580952D01*
X167330476Y-74676190D01*
X167378095Y-74771428D01*
%TO.C,Fan 4*%
X167314571Y-108299047D02*
X167314571Y-108632380D01*
X167838380Y-108632380D02*
X166838380Y-108632380D01*
X166838380Y-108156190D01*
X167838380Y-107346666D02*
X167314571Y-107346666D01*
X167219333Y-107394285D01*
X167171714Y-107489523D01*
X167171714Y-107680000D01*
X167219333Y-107775238D01*
X167790761Y-107346666D02*
X167838380Y-107441904D01*
X167838380Y-107680000D01*
X167790761Y-107775238D01*
X167695523Y-107822857D01*
X167600285Y-107822857D01*
X167505047Y-107775238D01*
X167457428Y-107680000D01*
X167457428Y-107441904D01*
X167409809Y-107346666D01*
X167171714Y-106870476D02*
X167838380Y-106870476D01*
X167266952Y-106870476D02*
X167219333Y-106822857D01*
X167171714Y-106727619D01*
X167171714Y-106584761D01*
X167219333Y-106489523D01*
X167314571Y-106441904D01*
X167838380Y-106441904D01*
X167171714Y-104775238D02*
X167838380Y-104775238D01*
X166790761Y-105013333D02*
X167505047Y-105251428D01*
X167505047Y-104632380D01*
D11*
%TO.C,470 ohm 1206 resistor*%
X142147936Y-76602000D02*
X143602064Y-76602000D01*
X142147936Y-74782000D02*
X143602064Y-74782000D01*
%TO.C,NANO USB PORT GOES ON THIS SIDE*%
X146050000Y-87630000D02*
X146050000Y-84963000D01*
X105283000Y-97917000D02*
X107823000Y-97917000D01*
X107823000Y-84963000D02*
X107823000Y-90043000D01*
X146050000Y-87630000D02*
X110490000Y-87630000D01*
X148590000Y-87630000D02*
X148590000Y-84963000D01*
X105283000Y-90043000D02*
X107823000Y-90043000D01*
X146050000Y-87630000D02*
X148590000Y-87630000D01*
X107823000Y-97917000D02*
X107823000Y-102997000D01*
X148590000Y-100330000D02*
X110490000Y-100330000D01*
X110490000Y-87630000D02*
X110490000Y-84960000D01*
X146050000Y-84963000D02*
X107823000Y-84963000D01*
X151257000Y-102997000D02*
X151257000Y-84963000D01*
X148590000Y-100330000D02*
X148590000Y-103000000D01*
X107823000Y-102997000D02*
X151257000Y-102997000D01*
X105283000Y-90043000D02*
X105283000Y-97917000D01*
X110490000Y-100330000D02*
X110490000Y-103000000D01*
X151257000Y-84963000D02*
X148590000Y-84963000D01*
%TO.C,470 ohm 1206 resistor*%
X150783936Y-113009000D02*
X152238064Y-113009000D01*
X150783936Y-114829000D02*
X152238064Y-114829000D01*
X150910936Y-107675000D02*
X152365064Y-107675000D01*
X150910936Y-109495000D02*
X152365064Y-109495000D01*
X128812936Y-78084000D02*
X130267064Y-78084000D01*
X128812936Y-79904000D02*
X130267064Y-79904000D01*
%TO.C,Fan 5*%
X160022000Y-113538000D02*
X161032000Y-113538000D01*
X159922000Y-119988000D02*
X159922000Y-112188000D01*
X165972000Y-112188000D02*
X165972000Y-119988000D01*
X165972000Y-119988000D02*
X159922000Y-119988000D01*
X161032000Y-113538000D02*
X161032000Y-118618000D01*
X161032000Y-118618000D02*
X160022000Y-118618000D01*
X159922000Y-112188000D02*
X165972000Y-112188000D01*
%TO.C,RGB_1*%
X113715000Y-65345000D02*
X113715000Y-66040000D01*
X109470000Y-65345000D02*
X109470000Y-65645507D01*
X112345000Y-66648276D02*
X112345000Y-66735000D01*
X109470000Y-66434493D02*
X109470000Y-66735000D01*
X112345000Y-66735000D02*
X109470000Y-66735000D01*
X112345000Y-65345000D02*
X109470000Y-65345000D01*
X112345000Y-65345000D02*
X112345000Y-65431724D01*
X113030000Y-65345000D02*
X113715000Y-65345000D01*
%TO.C,RGB_4*%
X139015000Y-65345000D02*
X136140000Y-65345000D01*
X139015000Y-66735000D02*
X136140000Y-66735000D01*
X139015000Y-66648276D02*
X139015000Y-66735000D01*
X140385000Y-65345000D02*
X140385000Y-66040000D01*
X139700000Y-65345000D02*
X140385000Y-65345000D01*
X136140000Y-66434493D02*
X136140000Y-66735000D01*
X136140000Y-65345000D02*
X136140000Y-65645507D01*
X139015000Y-65345000D02*
X139015000Y-65431724D01*
%TO.C,RGB_5*%
X145030000Y-66434493D02*
X145030000Y-66735000D01*
X147905000Y-66648276D02*
X147905000Y-66735000D01*
X148590000Y-65345000D02*
X149275000Y-65345000D01*
X147905000Y-65345000D02*
X147905000Y-65431724D01*
X149275000Y-65345000D02*
X149275000Y-66040000D01*
X145030000Y-65345000D02*
X145030000Y-65645507D01*
X147905000Y-66735000D02*
X145030000Y-66735000D01*
X147905000Y-65345000D02*
X145030000Y-65345000D01*
%TO.C,Fan 2*%
X161540000Y-88138000D02*
X160530000Y-88138000D01*
X160530000Y-83058000D02*
X161540000Y-83058000D01*
X160430000Y-89508000D02*
X160430000Y-81708000D01*
X166480000Y-81708000D02*
X166480000Y-89508000D01*
X160430000Y-81708000D02*
X166480000Y-81708000D01*
X161540000Y-83058000D02*
X161540000Y-88138000D01*
X166480000Y-89508000D02*
X160430000Y-89508000D01*
%TO.C,RGB_2*%
X121211000Y-66648276D02*
X121211000Y-66735000D01*
X121211000Y-65345000D02*
X121211000Y-65431724D01*
X118336000Y-66434493D02*
X118336000Y-66735000D01*
X121211000Y-65345000D02*
X118336000Y-65345000D01*
X121896000Y-65345000D02*
X122581000Y-65345000D01*
X121211000Y-66735000D02*
X118336000Y-66735000D01*
X122581000Y-65345000D02*
X122581000Y-66040000D01*
X118336000Y-65345000D02*
X118336000Y-65645507D01*
%TO.C,RGB_3*%
X130101000Y-66735000D02*
X127226000Y-66735000D01*
X130786000Y-65345000D02*
X131471000Y-65345000D01*
X130101000Y-65345000D02*
X127226000Y-65345000D01*
X127226000Y-66434493D02*
X127226000Y-66735000D01*
X130101000Y-66648276D02*
X130101000Y-66735000D01*
X130101000Y-65345000D02*
X130101000Y-65431724D01*
X131471000Y-65345000D02*
X131471000Y-66040000D01*
X127226000Y-65345000D02*
X127226000Y-65645507D01*
%TO.C,SATA CONNECTOR*%
X68195080Y-76404000D02*
X68195080Y-76974000D01*
X75635080Y-116744000D02*
X76635080Y-116744000D01*
X69955080Y-75174000D02*
X70955080Y-75174000D01*
X79795080Y-77754000D02*
X80795080Y-77754000D01*
X75635080Y-116744000D02*
X75635080Y-115834000D01*
X69885080Y-77504000D02*
X69885080Y-113504000D01*
X68195080Y-114604000D02*
X68195080Y-114034000D01*
X77645080Y-77754000D02*
X77645080Y-113254000D01*
X80795080Y-114254000D02*
X80795080Y-113254000D01*
X79795080Y-116754000D02*
X80795080Y-116754000D01*
X80795080Y-116754000D02*
X80795080Y-115754000D01*
X75635080Y-115834000D02*
X74635080Y-115834000D01*
X69885080Y-77504000D02*
X68195080Y-76974000D01*
X75635080Y-75174000D02*
X74635080Y-75174000D01*
X75635080Y-74264000D02*
X75635080Y-75174000D01*
X80794860Y-76730860D02*
X80795080Y-77754000D01*
X69955080Y-115834000D02*
X70955080Y-115834000D01*
X80795080Y-74254000D02*
X80795080Y-75254000D01*
X75635080Y-74264000D02*
X76635080Y-74264000D01*
X77645080Y-113254000D02*
X78645080Y-113254000D01*
X79795080Y-74254000D02*
X80795080Y-74254000D01*
X79795080Y-113254000D02*
X80795080Y-113254000D01*
X69955080Y-75174000D02*
X68195080Y-76404000D01*
X69885080Y-113504000D02*
X68195080Y-114034000D01*
X69955080Y-115834000D02*
X68195080Y-114604000D01*
X77645080Y-77754000D02*
X78645080Y-77754000D01*
%TO.C,Fan 3*%
X160276000Y-93218000D02*
X161286000Y-93218000D01*
X160176000Y-91868000D02*
X166226000Y-91868000D01*
X161286000Y-93218000D02*
X161286000Y-98298000D01*
X166226000Y-91868000D02*
X166226000Y-99668000D01*
X160176000Y-99668000D02*
X160176000Y-91868000D01*
X161286000Y-98298000D02*
X160276000Y-98298000D01*
X166226000Y-99668000D02*
X160176000Y-99668000D01*
%TO.C,Fan 1*%
X166347000Y-79338000D02*
X160297000Y-79338000D01*
X161407000Y-72888000D02*
X161407000Y-77968000D01*
X160297000Y-71538000D02*
X166347000Y-71538000D01*
X160297000Y-79338000D02*
X160297000Y-71538000D01*
X160397000Y-72888000D02*
X161407000Y-72888000D01*
X166347000Y-71538000D02*
X166347000Y-79338000D01*
X161407000Y-77968000D02*
X160397000Y-77968000D01*
%TO.C,Fan 4*%
X160043000Y-102018000D02*
X166093000Y-102018000D01*
X161153000Y-103368000D02*
X161153000Y-108448000D01*
X160043000Y-109818000D02*
X160043000Y-102018000D01*
X166093000Y-102018000D02*
X166093000Y-109818000D01*
X161153000Y-108448000D02*
X160143000Y-108448000D01*
X166093000Y-109818000D02*
X160043000Y-109818000D01*
X160143000Y-103368000D02*
X161153000Y-103368000D01*
%TD*%
M02*
